<?xml version="1.0" encoding="UTF-8" standalone="no"?>
<svg xmlns="http://www.w3.org/2000/svg" viewBox="0 0 92.5 39.7" version="1.1" height="150" width="350">
  <polygon transform="matrix(0.20677051,0,0,0.20677051,-0.06658396,0.82714451)" points="-0.0004,188 220,188 110,0.0009 " style="fill:#48b884"/>
  <polygon transform="matrix(0.20677051,0,0,0.20677051,-0.06658396,0.82714451)" points="256,188 164,31.2 72.8,188 " style="fill:#3f7f70"/>
  <polygon transform="matrix(0.20677051,0,0,0.20677051,-0.06658396,0.82714451)" points="220,188 146,62.4 72.8,188 " style="fill:#36495d"/>
  <path d="m 72.650086,1.4133713 c 10.225756,0 18.446466,8.2708337 18.446466,18.4464657 0,10.225758 -8.27083,18.446466 -18.446466,18.446466 -10.175631,0 -18.446465,-8.270834 -18.446465,-18.446466 0,-10.2257583 8.270834,-18.4464657 18.446465,-18.4464657 m 0,-1.41356066 c -10.927525,0 -19.850001,8.92247516 -19.850001,19.85000136 0,10.927526 8.922476,19.850001 19.850001,19.850001 10.927526,0 19.850006,-8.922475 19.850006,-19.850001 0,-10.9275262 -8.92248,-19.85000136 -19.850006,-19.85000136 m 3.238157,3.97000016 c -1.624091,-0.2947425 -5.543965,5.6542427 -6.837223,9.2833842 -0.09855,0.274692 -0.323815,1.283233 -0.323815,1.543889 0,0 1.01255,2.185506 1.293257,2.696793 -0.471186,-0.245618 -1.453661,-2.135378 -1.453661,-2.135378 -0.471187,0.899265 -0.923326,5.022651 -0.775955,5.794596 0,0 1.052652,1.563939 1.463687,1.954924 -0.560412,-0.18647 -1.503788,-1.453662 -1.503788,-1.453662 -0.176444,0.545374 -0.142358,1.684243 -0.05885,2.065203 0.707783,1.032601 1.654167,1.152904 1.654167,1.152904 0,0 -1.032601,10.32601 0.530336,11.027778 0.972449,-0.20652 1.213055,-11.529041 1.213055,-11.529041 0,0 1.18298,0.08842 1.443637,-0.20652 0.59951,-0.413041 1.995025,-4.701844 2.015075,-5.313384 0,0 -1.614065,0.303765 -2.40606,0.609535 0.594497,-0.590487 2.496288,-0.987487 2.496288,-0.987487 0.515298,-0.618558 1.60404,-4.822147 1.704293,-6.12543 0.02737,-0.324818 0.09063,-0.723823 0.0417,-1.303283 0,0 -1.543889,0.338854 -1.864697,0.221558 0.326823,-0.03699 1.904798,-0.643621 1.904798,-0.643621 0.279704,-2.5163388 0.366924,-6.5464905 -0.530336,-6.7068946 z M 70.234,30.636984 c -0.12331,3.027627 -0.201507,3.889798 -0.328828,4.601591 -0.05885,0.133336 -0.118298,0.154389 -0.176444,-0.01504 C 69.188366,32.737275 69.227465,13.970001 75.38297,5.5487881 71.803955,12.095279 70.169839,24.596769 70.22999,30.712174 Z" style="fill:#333333"/>
</svg>
